<?xml version="1.0" encoding="utf-8"?>
<!-- Generator: Adobe Illustrator 16.0.4, SVG Export Plug-In . SVG Version: 6.00 Build 0)  -->
<!DOCTYPE svg PUBLIC "-//W3C//DTD SVG 1.1//EN" "http://www.w3.org/Graphics/SVG/1.1/DTD/svg11.dtd">
<svg xmlns="http://www.w3.org/2000/svg" xmlns:xlink="http://www.w3.org/1999/xlink" version="1.1" id="Layer_1" x="0px" y="0px" width="514px" height="112.333px" viewBox="0 0 514 112.333" xml:space="preserve">
<g>
	<g id="Layer_1_1_">
	</g>
	<g>
		<path fill="#0063A2" d="M68.434,36.983c-9.697,0-11.579,10.825-11.579,21.086c0,10.264,2.07,20.525,11.579,20.525    c9.697,0,11.485-10.356,11.485-20.525C79.919,47.903,78.131,36.983,68.434,36.983z"/>
		<path fill="#0063A2" d="M127.074,69.177c0,7.345,4.519,10.354,12.05,10.354c3.201,0,6.308-0.562,8.378-1.692V54.587    C134.698,56.188,127.074,58.918,127.074,69.177z"/>
		<path fill="#0063A2" d="M0,0v97.387l168.458-0.013c0,0,13.075,0.989,20.265-15.525c3.376-7.756,34.167-61.614,36.826-64.98    C231.492,9.34,235.648,0,235.648,0H0z M36.069,83.396h-8.661V24.462H14.509v-5.837h34.457v5.837H36.069V83.396z M68.434,84.337    c-13.839,0-19.864-11.394-19.864-26.268c0-15.158,6.119-26.358,19.77-26.358c13.935,0,19.864,11.201,19.864,26.358    C88.203,72.943,82.179,84.337,68.434,84.337z M115.212,37.83h-8.849v33.044c0,4.048,1.789,7.345,6.402,7.345    c0.846,0,1.6-0.19,2.447-0.38v5.273c-0.941,0.283-2.447,0.75-4.519,0.75c-9.226,0-12.616-6.589-12.616-12.802V37.83h-5.837v-5.178    h5.837V20.98l8.285-2.544v14.216h8.849V37.83z M155.317,80.76c-3.86,2.164-9.791,3.577-16.853,3.577    c-13.18,0-19.298-5.742-19.298-14.969c0-13.461,12.616-17.417,28.336-19.015v-3.109c0-7.814-4.708-10.074-11.202-10.074    c-4.896,0-9.414,1.79-12.239,3.201l-1.976-4.894c2.919-1.604,8.568-3.766,15.532-3.766c9.414,0,17.7,4.048,17.7,16.477V80.76z     M173.766,83.396h-8.284v-73.9h8.284V83.396z"/>
	</g>
	
		<linearGradient id="SVGID_1_" gradientUnits="userSpaceOnUse" x1="185.0615" y1="26.6543" x2="206.2723" y2="42.3855" gradientTransform="matrix(0.9985 -0.0554 0.0554 0.9985 0.0785 15.2955)">
		<stop offset="0" style="stop-color:#004E83"/>
		<stop offset="0.3497" style="stop-color:#0063A2"/>
		<stop offset="1" style="stop-color:#004E83"/>
	</linearGradient>
	<path fill="url(#SVGID_1_)" d="M185.666,87.438c0,0,1.643-1.287-4.249-11.841c-5.894-10.551-12.316-21.078-12.958-27.855   c0,0,3.686-5.334,19.557-12.672c15.869-7.341,37.152-15.95,44.651-29.104C232.667,5.965,186.581,86.412,185.666,87.438z"/>
	<g>
		<path fill="#0063A2" d="M249.956,69.375v14.686h-11.569V69.375h-27.865v-7.546l27.462-46.977h11.971v47.582h5.331v6.941H249.956z     M233.559,36.582L218.57,62.434h19.817l0.1-25.451c0-5.533,0.203-10.16,0.203-10.16C238.589,26.823,236.678,31.149,233.559,36.582    z"/>
	</g>
	<g>
		<path fill="#696C72" d="M307.062,46.853c0,4.492-1.414,8.075-4.241,10.751c-3.179,3.027-7.772,4.542-13.778,4.542    c-1.061,0-2.171-0.049-3.331-0.153l-2.65-0.227v22.638h-4.24V34.36c3.077-1.867,6.939-2.801,11.584-2.801    c5.451,0,9.64,1.413,12.569,4.239C305.7,38.424,307.062,42.108,307.062,46.853z M302.821,46.664c0-8.303-4.29-12.455-12.87-12.455    c-2.726,0-5.022,0.405-6.89,1.215v23.542l2.498,0.229c1.11,0.101,2.145,0.151,3.104,0.151    C298.102,59.345,302.821,55.118,302.821,46.664z"/>
		<path fill="#696C72" d="M342.57,84.405h-5.073l-19.534-24.986h-0.226v24.986h-4.165V34.284c2.826-1.816,6.688-2.724,11.584-2.724    c5.3,0,9.362,1.312,12.189,3.935c2.827,2.625,4.24,6.336,4.24,11.13c0,4.897-1.565,8.632-4.694,11.207    c-3.131,2.574-7.471,3.759-13.022,3.557L342.57,84.405z M337.346,46.701c0-8.327-4.164-12.492-12.493-12.492    c-2.979,0-5.35,0.454-7.115,1.363v23.091c1.312,0.405,3.103,0.605,5.375,0.605C332.6,59.268,337.346,55.08,337.346,46.701z"/>
		<path fill="#696C72" d="M383.001,58.361c0,8.075-1.39,14.411-4.164,19.003c-3.131,5.199-7.774,7.797-13.931,7.797    c-6.159,0-10.777-2.598-13.855-7.797c-2.777-4.645-4.165-10.978-4.165-19.003c0-7.975,1.388-14.31,4.165-19.004    c3.128-5.199,7.748-7.797,13.855-7.797c6.156,0,10.8,2.599,13.931,7.797C381.611,44.051,383.001,50.386,383.001,58.361z     M378.686,58.285c0-15.849-4.594-23.774-13.779-23.774c-9.137,0-13.704,7.925-13.704,23.774c0,15.748,4.567,23.623,13.704,23.623    C374.092,81.907,378.686,74.032,378.686,58.285z"/>
		<path fill="#696C72" d="M395.037,82.967c0,4.896-1.488,9.009-4.467,12.341c-2.676,3.029-6.008,4.945-9.993,5.754v-3.104    c2.927-0.959,5.3-2.649,7.116-5.072c2.019-2.725,3.029-6.032,3.029-9.918v-50.65h4.314V82.967z"/>
		<path fill="#696C72" d="M427.365,84.405h-22.941V32.316h22.941v2.952H408.74v20.593h16.883v2.954H408.74v22.638h18.625V84.405z"/>
		<path fill="#696C72" d="M459.847,82.361c-2.271,1.868-5.478,2.8-9.616,2.8c-5.704,0-10.322-2.573-13.855-7.721    c-3.432-4.997-5.147-11.358-5.147-19.08c0-7.621,1.69-13.931,5.072-18.928c3.532-5.25,8.15-7.873,13.855-7.873    c3.938,0,7.167,0.908,9.691,2.724l-1.287,2.575c-2.119-1.515-4.721-2.271-7.799-2.271c-5.099,0-8.96,2.448-11.584,7.343    c-2.271,4.19-3.406,9.666-3.406,16.43c0,6.763,1.161,12.264,3.483,16.505c2.673,4.745,6.484,7.115,11.432,7.115    c2.825,0,5.451-0.73,7.874-2.194L459.847,82.361z"/>
		<path fill="#696C72" d="M487.631,35.268h-10.979v49.137h-4.314V35.268h-10.979v-2.952h26.271V35.268z"/>
		<path fill="#696C72" d="M513.524,70.171c0,4.442-1.4,8.051-4.201,10.827c-2.802,2.777-6.373,4.163-10.715,4.163    c-4.693,0-8.479-0.932-11.355-2.8l1.362-3.03c2.575,1.667,5.704,2.5,9.389,2.5c3.38,0,6.095-1.047,8.14-3.141    c2.044-2.096,3.066-4.885,3.066-8.366c0-2.626-0.784-4.796-2.348-6.513c-1.565-1.714-4.14-3.255-7.722-4.617    c-7.572-2.826-11.358-7.42-11.358-13.78c0-3.836,1.262-7.105,3.786-9.805c2.522-2.699,5.854-4.05,9.994-4.05    c4.088,0,7.394,0.908,9.918,2.724l-1.211,2.802c-2.474-1.666-5.3-2.498-8.479-2.498c-3.08,0-5.478,0.973-7.193,2.915    c-1.717,1.943-2.575,4.555-2.575,7.835c0,4.694,3.155,8.204,9.465,10.524C509.512,58.79,513.524,63.56,513.524,70.171z"/>
	</g>
</g>
</svg>
